# Blender 4.5.3 LTS
# www.blender.org
mtllib stvorstenRot.mtl
o Cone
v -3.000000 0.000000 -3.000000
v -1.060660 -3.621320 -1.939340
v -2.121320 -3.000000 2.121321
v -4.060660 0.621320 1.060660
v 2.560660 1.500000 0.439340
vn 0.5202 0.0286 -0.8536
vn 0.7155 -0.6381 0.2845
vn -0.8536 -0.5000 -0.1464
vn 0.0488 0.3047 0.9512
vn -0.1464 0.9714 -0.1869
vt 0.250000 0.490000
vt 0.250000 0.250000
vt 0.490000 0.250000
vt 0.250000 0.010000
vt 0.750000 0.490000
vt 0.990000 0.250000
vt 0.750000 0.010000
vt 0.510000 0.250000
vt 0.010000 0.250000
s 1
f 1/1/1 5/2/1 2/3/1
f 2/3/2 5/2/2 3/4/2
f 1/5/3 2/6/3 3/7/3 4/8/3
f 3/4/4 5/2/4 4/9/4
f 4/9/5 5/2/5 1/1/5
