# Blender 4.5.3 LTS
# www.blender.org
mtllib valecRot.mtl
o Cylinder
v -1.000000 0.000000 -1.000000
v 0.707107 1.000000 -0.707107
v -0.899641 -0.147557 -1.081144
v 0.807466 0.852443 -0.788251
v -0.797511 -0.308658 -1.126369
v 0.909596 0.691342 -0.833476
v -0.697534 -0.477112 -1.133936
v 1.009572 0.522888 -0.841042
v -0.603553 -0.646447 -1.103554
v 1.103553 0.353553 -0.810660
v -0.519180 -0.810153 -1.036390
v 1.187927 0.189847 -0.743497
v -0.447656 -0.961940 -0.935027
v 1.259451 0.038060 -0.642134
v -0.391731 -1.095975 -0.803359
v 1.315376 -0.095975 -0.510466
v -0.353553 -1.207107 -0.646447
v 1.353553 -0.207107 -0.353553
v -0.334591 -1.291065 -0.470319
v 1.372516 -0.291065 -0.177426
v -0.335571 -1.344623 -0.281746
v 1.371536 -0.344623 0.011147
v -0.356457 -1.365723 -0.087973
v 1.350650 -0.365723 0.204920
v -0.396447 -1.353554 0.103553
v 1.310660 -0.353554 0.396447
v -0.454002 -1.308582 0.285472
v 1.253104 -0.308582 0.578366
v -0.526913 -1.232538 0.450793
v 1.180194 -0.232538 0.743686
v -0.612376 -1.128342 0.593161
v 1.094731 -0.128342 0.886054
v -0.707107 -1.000000 0.707107
v 1.000000 0.000000 1.000000
v -0.807466 -0.852443 0.788251
v 0.899641 0.147557 1.081144
v -0.909596 -0.691342 0.833476
v 0.797511 0.308658 1.126369
v -1.009572 -0.522888 0.841042
v 0.697534 0.477112 1.133936
v -1.103553 -0.353553 0.810660
v 0.603553 0.646447 1.103554
v -1.187927 -0.189847 0.743497
v 0.519180 0.810153 1.036390
v -1.259451 -0.038060 0.642134
v 0.447656 0.961940 0.935027
v -1.315376 0.095975 0.510466
v 0.391731 1.095975 0.803359
v -1.353553 0.207107 0.353553
v 0.353553 1.207107 0.646447
v -1.372516 0.291065 0.177426
v 0.334591 1.291065 0.470319
v -1.371536 0.344623 -0.011147
v 0.335571 1.344623 0.281746
v -1.350650 0.365723 -0.204920
v 0.356457 1.365723 0.087973
v -1.310660 0.353554 -0.396447
v 0.396447 1.353554 -0.103553
v -1.253104 0.308582 -0.578366
v 0.454002 1.308582 -0.285472
v -1.180194 0.232538 -0.743686
v 0.526913 1.232538 -0.450793
v -1.094731 0.128342 -0.886054
v 0.612376 1.128342 -0.593161
v -1.000000 0.000000 -1.000000
v 0.707107 1.000000 -0.707107
v -0.899641 -0.147557 -1.081144
v 0.807466 0.852443 -0.788251
v -0.797511 -0.308658 -1.126369
v 0.909596 0.691342 -0.833476
v -0.697534 -0.477112 -1.133936
v 1.009572 0.522888 -0.841042
v -0.603553 -0.646447 -1.103554
v 1.103553 0.353553 -0.810660
v -0.519180 -0.810153 -1.036390
v 1.187927 0.189847 -0.743497
v -0.447656 -0.961940 -0.935027
v 1.259451 0.038060 -0.642134
v -0.391731 -1.095975 -0.803359
v 1.315376 -0.095975 -0.510466
v -0.353553 -1.207107 -0.646447
v 1.353553 -0.207107 -0.353553
v -0.334591 -1.291065 -0.470319
v 1.372516 -0.291065 -0.177426
v -0.335571 -1.344623 -0.281746
v 1.371536 -0.344623 0.011147
v -0.356457 -1.365723 -0.087973
v 1.350650 -0.365723 0.204920
v -0.396447 -1.353554 0.103553
v 1.310660 -0.353554 0.396447
v -0.454002 -1.308582 0.285472
v 1.253104 -0.308582 0.578366
v -0.526913 -1.232538 0.450793
v 1.180194 -0.232538 0.743686
v -0.612376 -1.128342 0.593161
v 1.094731 -0.128342 0.886054
v -0.707107 -1.000000 0.707107
v 1.000000 0.000000 1.000000
v -0.807466 -0.852443 0.788251
v 0.899641 0.147557 1.081144
v -0.909596 -0.691342 0.833476
v 0.797511 0.308658 1.126369
v -1.009572 -0.522888 0.841042
v 0.697534 0.477112 1.133936
v -1.103553 -0.353553 0.810660
v 0.603553 0.646447 1.103554
v -1.187927 -0.189847 0.743497
v 0.519180 0.810153 1.036390
v -1.259451 -0.038060 0.642134
v 0.447656 0.961940 0.935027
v -1.315376 0.095975 0.510466
v 0.391731 1.095975 0.803359
v -1.353553 0.207107 0.353553
v 0.353553 1.207107 0.646447
v -1.372516 0.291065 0.177426
v 0.334591 1.291065 0.470319
v -1.371536 0.344623 -0.011147
v 0.335571 1.344623 0.281746
v -1.350650 0.365723 -0.204920
v 0.356457 1.365723 0.087973
v -1.310660 0.353554 -0.396447
v 0.396447 1.353554 -0.103553
v -1.253104 0.308582 -0.578366
v 0.454002 1.308582 -0.285472
v -1.180194 0.232538 -0.743686
v 0.526913 1.232538 -0.450793
v -1.094731 0.128342 -0.886054
v 0.612376 1.128342 -0.593161
v 1.247912 0.318213 0.340643
v 2.082867 1.805902 -0.471064
v 2.183226 1.658345 -0.552208
v 2.285356 1.497244 -0.597433
v 2.385333 1.328789 -0.604999
v 2.479313 1.159455 -0.574617
v 2.563687 0.995748 -0.507454
v 2.635211 0.843961 -0.406091
v 2.691136 0.709927 -0.274423
v 2.729313 0.598795 -0.117510
v 2.748276 0.514837 0.058617
v 2.747296 0.461278 0.247190
v 2.726410 0.440178 0.440963
v 2.686420 0.452348 0.632490
v 2.628864 0.497319 0.814409
v 2.555954 0.573364 0.979729
v 2.470491 0.677560 1.122097
v 2.375760 0.805902 1.236043
v 2.275401 0.953458 1.317187
v 2.173271 1.114559 1.362412
v 2.073294 1.283014 1.369979
v 1.979313 1.452348 1.339597
v 1.894940 1.616055 1.272433
v 1.823417 1.767841 1.171070
v 1.767491 1.901876 1.039402
v 1.729313 2.013008 0.882490
v 1.710351 2.096966 0.706362
v 1.711331 2.150524 0.517789
v 1.732217 2.171625 0.324016
v 1.772206 2.159455 0.132490
v 1.829762 2.114484 -0.049429
v 1.902673 2.038439 -0.214750
v 1.988136 1.934243 -0.357118
v 2.623671 1.124114 0.576686
vn 0.6919 -0.0211 0.7217
vn 0.6188 0.0863 0.7808
vn -0.5517 -0.5994 0.5799
vn -0.4787 -0.7068 0.5209
vn 0.5445 0.2036 0.8137
vn -0.6261 -0.4821 0.6129
vn 0.4717 0.3262 0.8192
vn -0.6988 -0.3595 0.6184
vn 0.4033 0.4494 0.7971
vn -0.7673 -0.2363 0.5962
vn 0.3419 0.5686 0.7482
vn -0.8287 -0.1171 0.5474
vn 0.2898 0.6791 0.6744
vn -0.8807 -0.0066 0.4736
vn 0.2491 0.7767 0.5786
vn -0.9214 0.0909 0.3777
vn 0.2213 0.8575 0.4644
vn -0.9492 0.1718 0.2635
vn 0.2075 0.9187 0.3362
vn -0.9630 0.2330 0.1353
vn 0.2083 0.9576 0.1989
vn -0.9623 0.2719 -0.0019
vn 0.2235 0.9730 0.0579
vn -0.9471 0.2873 -0.1430
vn 0.2526 0.9641 -0.0816
vn -0.9180 0.2784 -0.2824
vn 0.2945 0.9314 -0.2140
vn -0.8761 0.2457 -0.4148
vn 0.3475 0.8761 -0.3343
vn -0.8230 0.1904 -0.5351
vn 0.4097 0.8002 -0.4379
vn -0.7608 0.1145 -0.6388
vn 0.4787 0.7068 -0.5209
vn -0.6919 0.0211 -0.7217
vn 0.5517 0.5994 -0.5799
vn -0.6188 -0.0863 -0.7808
vn 0.6261 0.4821 -0.6129
vn -0.5445 -0.2036 -0.8137
vn 0.6988 0.3595 -0.6184
vn -0.4717 -0.3262 -0.8192
vn 0.7673 0.2363 -0.5962
vn -0.4033 -0.4494 -0.7971
vn 0.8287 0.1171 -0.5474
vn -0.3419 -0.5686 -0.7482
vn 0.8807 0.0066 -0.4736
vn -0.2898 -0.6791 -0.6744
vn 0.9214 -0.0909 -0.3777
vn -0.2491 -0.7767 -0.5786
vn 0.9492 -0.1718 -0.2635
vn -0.2213 -0.8575 -0.4644
vn 0.9630 -0.2330 -0.1353
vn -0.2075 -0.9187 -0.3362
vn 0.9623 -0.2719 0.0019
vn -0.2083 -0.9576 -0.1989
vn 0.9471 -0.2873 0.1430
vn -0.2235 -0.9730 -0.0579
vn 0.9180 -0.2784 0.2824
vn -0.2526 -0.9641 0.0816
vn 0.8761 -0.2457 0.4148
vn -0.2945 -0.9314 0.2140
vn 0.8230 -0.1904 0.5351
vn -0.3475 -0.8761 0.3343
vn -0.4097 -0.8002 0.4379
vn 0.7608 -0.1145 0.6388
vn -0.1464 0.5000 -0.8536
vn -0.0461 0.3524 -0.9347
vn 0.0560 0.1913 -0.9799
vn 0.1560 0.0229 -0.9875
vn 0.2500 -0.1464 -0.9571
vn 0.3344 -0.3102 -0.8899
vn 0.4059 -0.4619 -0.7886
vn 0.4618 -0.5960 -0.6569
vn 0.5000 -0.7071 -0.5000
vn 0.5190 -0.7911 -0.3239
vn 0.5180 -0.8446 -0.1353
vn 0.4971 -0.8657 0.0585
vn 0.4571 -0.8536 0.2500
vn 0.3996 -0.8086 0.4319
vn 0.3266 -0.7325 0.5972
vn 0.2412 -0.6283 0.7396
vn 0.1464 -0.5000 0.8536
vn 0.0461 -0.3524 0.9347
vn -0.0560 -0.1913 0.9799
vn -0.1560 -0.0229 0.9875
vn -0.2500 0.1464 0.9571
vn -0.3344 0.3102 0.8899
vn -0.4059 0.4619 0.7886
vn -0.4618 0.5960 0.6569
vn -0.5000 0.7071 0.5000
vn -0.5190 0.7911 0.3239
vn -0.5180 0.8446 0.1353
vn -0.4971 0.8657 -0.0585
vn -0.4571 0.8536 -0.2500
vn -0.3996 0.8086 -0.4319
vn -0.3266 0.7325 -0.5972
vn -0.2412 0.6283 -0.7396
vt 1.000000 0.500000
vt 0.968750 0.500000
vt 0.968750 1.000000
vt 1.000000 1.000000
vt 0.937500 0.500000
vt 0.937500 1.000000
vt 0.906250 0.500000
vt 0.906250 1.000000
vt 0.875000 0.500000
vt 0.875000 1.000000
vt 0.843750 0.500000
vt 0.843750 1.000000
vt 0.812500 0.500000
vt 0.812500 1.000000
vt 0.781250 0.500000
vt 0.781250 1.000000
vt 0.750000 0.500000
vt 0.750000 1.000000
vt 0.718750 0.500000
vt 0.718750 1.000000
vt 0.687500 0.500000
vt 0.687500 1.000000
vt 0.656250 0.500000
vt 0.656250 1.000000
vt 0.625000 0.500000
vt 0.625000 1.000000
vt 0.593750 0.500000
vt 0.593750 1.000000
vt 0.562500 0.500000
vt 0.562500 1.000000
vt 0.531250 0.500000
vt 0.531250 1.000000
vt 0.500000 0.500000
vt 0.500000 1.000000
vt 0.468750 0.500000
vt 0.468750 1.000000
vt 0.437500 0.500000
vt 0.437500 1.000000
vt 0.406250 0.500000
vt 0.406250 1.000000
vt 0.375000 0.500000
vt 0.375000 1.000000
vt 0.343750 0.500000
vt 0.343750 1.000000
vt 0.312500 0.500000
vt 0.312500 1.000000
vt 0.281250 0.500000
vt 0.281250 1.000000
vt 0.250000 0.500000
vt 0.250000 1.000000
vt 0.218750 0.500000
vt 0.218750 1.000000
vt 0.187500 0.500000
vt 0.187500 1.000000
vt 0.156250 0.500000
vt 0.156250 1.000000
vt 0.125000 0.500000
vt 0.125000 1.000000
vt 0.093750 0.500000
vt 0.093750 1.000000
vt 0.062500 0.500000
vt 0.062500 1.000000
vt 0.296822 0.485388
vt 0.341844 0.471731
vt 0.383337 0.449553
vt 0.419706 0.419706
vt 0.449553 0.383337
vt 0.471731 0.341844
vt 0.485388 0.296822
vt 0.490000 0.250000
vt 0.485388 0.203178
vt 0.471731 0.158156
vt 0.449553 0.116663
vt 0.419706 0.080294
vt 0.383337 0.050447
vt 0.341844 0.028269
vt 0.296822 0.014612
vt 0.250000 0.010000
vt 0.203178 0.014612
vt 0.158156 0.028269
vt 0.116663 0.050447
vt 0.080294 0.080294
vt 0.050447 0.116663
vt 0.028269 0.158156
vt 0.014612 0.203178
vt 0.010000 0.250000
vt 0.014612 0.296822
vt 0.028269 0.341844
vt 0.050447 0.383337
vt 0.080294 0.419706
vt 0.116663 0.449553
vt 0.158156 0.471731
vt 0.203178 0.485388
vt 0.250000 0.490000
vt 0.031250 0.500000
vt 0.031250 1.000000
vt 0.000000 0.500000
vt 0.000000 1.000000
vt 0.750000 0.490000
vt 0.703178 0.485388
vt 0.658156 0.471731
vt 0.616663 0.449553
vt 0.580294 0.419706
vt 0.550447 0.383337
vt 0.528269 0.341844
vt 0.514612 0.296822
vt 0.510000 0.250000
vt 0.514612 0.203178
vt 0.528269 0.158156
vt 0.550447 0.116663
vt 0.580294 0.080294
vt 0.616663 0.050447
vt 0.658156 0.028269
vt 0.703178 0.014612
vt 0.750000 0.010000
vt 0.796822 0.014612
vt 0.841844 0.028269
vt 0.883337 0.050447
vt 0.919706 0.080294
vt 0.949553 0.116663
vt 0.971731 0.158156
vt 0.985388 0.203178
vt 0.990000 0.250000
vt 0.985388 0.296822
vt 0.971731 0.341844
vt 0.949553 0.383337
vt 0.919706 0.419706
vt 0.883337 0.449553
vt 0.841844 0.471731
vt 0.796822 0.485388
s 1
f 1/1/1 3/2/2 4/3/3 2/4/4
f 3/2/2 5/5/5 6/6/6 4/3/3
f 5/5/5 7/7/7 8/8/8 6/6/6
f 7/7/7 9/9/9 10/10/10 8/8/8
f 9/9/9 11/11/11 12/12/12 10/10/10
f 11/11/11 13/13/13 14/14/14 12/12/12
f 13/13/13 15/15/15 16/16/16 14/14/14
f 15/15/15 17/17/17 18/18/18 16/16/16
f 17/17/17 19/19/19 20/20/20 18/18/18
f 19/19/19 21/21/21 22/22/22 20/20/20
f 21/21/21 23/23/23 24/24/24 22/22/22
f 23/23/23 25/25/25 26/26/26 24/24/24
f 25/25/25 27/27/27 28/28/28 26/26/26
f 27/27/27 29/29/29 30/30/30 28/28/28
f 29/29/29 31/31/31 32/32/32 30/30/30
f 31/31/31 33/33/33 34/34/34 32/32/32
f 33/33/33 35/35/35 36/36/36 34/34/34
f 35/35/35 37/37/37 38/38/38 36/36/36
f 37/37/37 39/39/39 40/40/40 38/38/38
f 39/39/39 41/41/41 42/42/42 40/40/40
f 41/41/41 43/43/43 44/44/44 42/42/42
f 43/43/43 45/45/45 46/46/46 44/44/44
f 45/45/45 47/47/47 48/48/48 46/46/46
f 47/47/47 49/49/49 50/50/50 48/48/48
f 49/49/49 51/51/51 52/52/52 50/50/50
f 51/51/51 53/53/53 54/54/54 52/52/52
f 53/53/53 55/55/55 56/56/56 54/54/54
f 55/55/55 57/57/57 58/58/58 56/56/56
f 57/57/57 59/59/59 60/60/60 58/58/58
f 59/59/59 61/61/61 62/62/62 60/60/60
f 4/63/3 6/64/6 8/65/8 10/66/10 12/67/12 14/68/14 16/69/16 18/70/18 20/71/20 22/72/22 24/73/24 26/74/26 28/75/28 30/76/30 32/77/32 34/78/34 36/79/36 38/80/38 40/81/40 42/82/42 44/83/44 46/84/46 48/85/48 50/86/50 52/87/52 54/88/54 56/89/56 58/90/58 60/91/60 62/92/62 64/93/63 2/94/4
f 61/61/61 63/95/64 64/96/63 62/62/62
f 63/95/64 1/97/1 2/98/4 64/96/63
f 1/99/1 63/100/64 61/101/61 59/102/59 57/103/57 55/104/55 53/105/53 51/106/51 49/107/49 47/108/47 45/109/45 43/110/43 41/111/41 39/112/39 37/113/37 35/114/35 33/115/33 31/116/31 29/117/29 27/118/27 25/119/25 23/120/23 21/121/21 19/122/19 17/123/17 15/124/15 13/125/13 11/126/11 9/127/9 7/128/7 5/129/5 3/130/2
f 65/1/34 66/4/65 68/3/66 67/2/36
f 67/2/36 68/3/66 70/6/67 69/5/38
f 69/5/38 70/6/67 72/8/68 71/7/40
f 71/7/40 72/8/68 74/10/69 73/9/42
f 73/9/42 74/10/69 76/12/70 75/11/44
f 75/11/44 76/12/70 78/14/71 77/13/46
f 77/13/46 78/14/71 80/16/72 79/15/48
f 79/15/48 80/16/72 82/18/73 81/17/50
f 81/17/50 82/18/73 84/20/74 83/19/52
f 83/19/52 84/20/74 86/22/75 85/21/54
f 85/21/54 86/22/75 88/24/76 87/23/56
f 87/23/56 88/24/76 90/26/77 89/25/58
f 89/25/58 90/26/77 92/28/78 91/27/60
f 91/27/60 92/28/78 94/30/79 93/29/62
f 93/29/62 94/30/79 96/32/80 95/31/63
f 95/31/63 96/32/80 98/34/81 97/33/4
f 97/33/4 98/34/81 100/36/82 99/35/3
f 99/35/3 100/36/82 102/38/83 101/37/6
f 101/37/6 102/38/83 104/40/84 103/39/8
f 103/39/8 104/40/84 106/42/85 105/41/10
f 105/41/10 106/42/85 108/44/86 107/43/12
f 107/43/12 108/44/86 110/46/87 109/45/14
f 109/45/14 110/46/87 112/48/88 111/47/16
f 111/47/16 112/48/88 114/50/89 113/49/18
f 113/49/18 114/50/89 116/52/90 115/51/20
f 115/51/20 116/52/90 118/54/91 117/53/22
f 117/53/22 118/54/91 120/56/92 119/55/24
f 119/55/24 120/56/92 122/58/93 121/57/26
f 121/57/26 122/58/93 124/60/94 123/59/28
f 123/59/28 124/60/94 126/62/95 125/61/30
f 128/96/96 126/62/95 160/62/29 161/96/31
f 125/61/30 126/62/95 128/96/96 127/95/32
f 127/95/32 128/96/96 66/98/65 65/97/34
f 65/99/34 67/130/36 69/129/38 71/128/40 73/127/42 75/126/44 77/125/46 79/124/48 81/123/50 83/122/52 85/121/54 87/120/56 89/119/58 91/118/60 93/117/62 95/116/63 97/115/4 99/114/3 101/113/6 103/112/8 105/111/10 107/110/12 109/109/14 111/108/16 113/107/18 115/106/20 117/105/22 119/104/24 121/103/26 123/102/28 125/101/30 127/100/32
f 131/63/35 130/94/33 161/93/31 160/92/29 159/91/27 158/90/25 157/89/23 156/88/21 155/87/19 154/86/17 153/85/15 152/84/13 151/83/11 150/82/9 149/81/7 148/80/5 147/79/2 146/78/1 145/77/64 144/76/61 143/75/59 142/74/57 141/73/55 140/72/53 139/71/51 138/70/49 137/69/47 136/68/45 135/67/43 134/66/41 133/65/39 132/64/37
f 84/20/74 82/18/73 138/18/49 139/20/51
f 102/38/83 100/36/82 147/36/2 148/38/5
f 120/56/92 118/54/91 156/54/21 157/56/23
f 76/12/70 74/10/69 134/10/41 135/12/43
f 94/30/79 92/28/78 143/28/59 144/30/61
f 112/48/88 110/46/87 152/46/13 153/48/15
f 68/3/66 66/4/65 130/4/33 131/3/35
f 66/98/65 128/96/96 161/96/31 130/98/33
f 86/22/75 84/20/74 139/20/51 140/22/53
f 104/40/84 102/38/83 148/38/5 149/40/7
f 122/58/93 120/56/92 157/56/23 158/58/25
f 78/14/71 76/12/70 135/12/43 136/14/45
f 96/32/80 94/30/79 144/30/61 145/32/64
f 114/50/89 112/48/88 153/48/15 154/50/17
f 70/6/67 68/3/66 131/3/35 132/6/37
f 88/24/76 86/22/75 140/22/53 141/24/55
f 106/42/85 104/40/84 149/40/7 150/42/9
f 124/60/94 122/58/93 158/58/25 159/60/27
f 80/16/72 78/14/71 136/14/45 137/16/47
f 98/34/81 96/32/80 145/32/64 146/34/1
f 116/52/90 114/50/89 154/50/17 155/52/19
f 72/8/68 70/6/67 132/6/37 133/8/39
f 90/26/77 88/24/76 141/24/55 142/26/57
f 108/44/86 106/42/85 150/42/9 151/44/11
f 126/62/95 124/60/94 159/60/27 160/62/29
f 82/18/73 80/16/72 137/16/47 138/18/49
f 100/36/82 98/34/81 146/34/1 147/36/2
f 118/54/91 116/52/90 155/52/19 156/54/21
f 74/10/69 72/8/68 133/8/39 134/10/41
f 92/28/78 90/26/77 142/26/57 143/28/59
f 110/46/87 108/44/86 151/44/11 152/46/13
l 129 162
