# Blender 4.5.3 LTS
# www.blender.org
mtllib valecSize.mtl
o Cylinder
v 0.000000 -10.000001 -9.999999
v 0.000000 9.999999 -10.000001
v 1.950900 -10.000001 -9.807849
v 1.950900 9.999999 -9.807851
v 3.826830 -10.000001 -9.238799
v 3.826830 9.999999 -9.238801
v 5.555700 -10.000001 -8.314699
v 5.555700 9.999999 -8.314701
v 7.071070 -10.000001 -7.071069
v 7.071070 9.999999 -7.071071
v 8.314700 -10.000000 -5.555699
v 8.314700 10.000000 -5.555701
v 9.238800 -10.000000 -3.826829
v 9.238800 10.000000 -3.826831
v 9.807850 -10.000000 -1.950899
v 9.807850 10.000000 -1.950901
v 10.000000 -10.000000 0.000001
v 10.000000 10.000000 -0.000001
v 9.807850 -10.000000 1.950901
v 9.807850 10.000000 1.950899
v 9.238800 -10.000000 3.826831
v 9.238800 10.000000 3.826829
v 8.314700 -10.000000 5.555701
v 8.314700 10.000000 5.555699
v 7.071070 -9.999999 7.071071
v 7.071070 10.000001 7.071069
v 5.555700 -9.999999 8.314701
v 5.555700 10.000001 8.314699
v 3.826830 -9.999999 9.238801
v 3.826830 10.000001 9.238799
v 1.950900 -9.999999 9.807851
v 1.950900 10.000001 9.807849
v 0.000000 -9.999999 10.000001
v 0.000000 10.000001 9.999999
v -1.950900 -9.999999 9.807851
v -1.950900 10.000001 9.807849
v -3.826830 -9.999999 9.238801
v -3.826830 10.000001 9.238799
v -5.555700 -9.999999 8.314701
v -5.555700 10.000001 8.314699
v -7.071070 -9.999999 7.071071
v -7.071070 10.000001 7.071069
v -8.314700 -10.000000 5.555701
v -8.314700 10.000000 5.555699
v -9.238800 -10.000000 3.826831
v -9.238800 10.000000 3.826829
v -9.807850 -10.000000 1.950901
v -9.807850 10.000000 1.950899
v -10.000000 -10.000000 0.000001
v -10.000000 10.000000 -0.000001
v -9.807850 -10.000000 -1.950899
v -9.807850 10.000000 -1.950901
v -9.238800 -10.000000 -3.826829
v -9.238800 10.000000 -3.826831
v -8.314700 -10.000000 -5.555699
v -8.314700 10.000000 -5.555701
v -7.071070 -10.000001 -7.071069
v -7.071070 9.999999 -7.071071
v -5.555700 -10.000001 -8.314699
v -5.555700 9.999999 -8.314701
v -3.826830 -10.000001 -9.238799
v -3.826830 9.999999 -9.238801
v -1.950900 -10.000001 -9.807849
v -1.950900 9.999999 -9.807851
v 0.000000 -10.000001 -9.999999
v 0.000000 9.999999 -10.000001
v 1.950900 -10.000001 -9.807849
v 1.950900 9.999999 -9.807851
v 3.826830 -10.000001 -9.238799
v 3.826830 9.999999 -9.238801
v 5.555700 -10.000001 -8.314699
v 5.555700 9.999999 -8.314701
v 7.071070 -10.000001 -7.071069
v 7.071070 9.999999 -7.071071
v 8.314700 -10.000000 -5.555699
v 8.314700 10.000000 -5.555701
v 9.238800 -10.000000 -3.826829
v 9.238800 10.000000 -3.826831
v 9.807850 -10.000000 -1.950899
v 9.807850 10.000000 -1.950901
v 10.000000 -10.000000 0.000001
v 10.000000 10.000000 -0.000001
v 9.807850 -10.000000 1.950901
v 9.807850 10.000000 1.950899
v 9.238800 -10.000000 3.826831
v 9.238800 10.000000 3.826829
v 8.314700 -10.000000 5.555701
v 8.314700 10.000000 5.555699
v 7.071070 -9.999999 7.071071
v 7.071070 10.000001 7.071069
v 5.555700 -9.999999 8.314701
v 5.555700 10.000001 8.314699
v 3.826830 -9.999999 9.238801
v 3.826830 10.000001 9.238799
v 1.950900 -9.999999 9.807851
v 1.950900 10.000001 9.807849
v 0.000000 -9.999999 10.000001
v 0.000000 10.000001 9.999999
v -1.950900 -9.999999 9.807851
v -1.950900 10.000001 9.807849
v -3.826830 -9.999999 9.238801
v -3.826830 10.000001 9.238799
v -5.555700 -9.999999 8.314701
v -5.555700 10.000001 8.314699
v -7.071070 -9.999999 7.071071
v -7.071070 10.000001 7.071069
v -8.314700 -10.000000 5.555701
v -8.314700 10.000000 5.555699
v -9.238800 -10.000000 3.826831
v -9.238800 10.000000 3.826829
v -9.807850 -10.000000 1.950901
v -9.807850 10.000000 1.950899
v -10.000000 -10.000000 0.000001
v -10.000000 10.000000 -0.000001
v -9.807850 -10.000000 -1.950899
v -9.807850 10.000000 -1.950901
v -9.238800 -10.000000 -3.826829
v -9.238800 10.000000 -3.826831
v -8.314700 -10.000000 -5.555699
v -8.314700 10.000000 -5.555701
v -7.071070 -10.000001 -7.071069
v -7.071070 9.999999 -7.071071
v -5.555700 -10.000001 -8.314699
v -5.555700 9.999999 -8.314701
v -3.826830 -10.000001 -9.238799
v -3.826830 9.999999 -9.238801
v -1.950900 -10.000001 -9.807849
v -1.950900 9.999999 -9.807851
v 2.286240 12.741520 3.144029
v 0.000000 26.118031 -10.000002
v 1.950900 26.118031 -9.807852
v 3.826830 26.118031 -9.238802
v 5.555700 26.118031 -8.314702
v 7.071070 26.118031 -7.071072
v 8.314700 26.118031 -5.555702
v 9.238800 26.118031 -3.826832
v 9.807850 26.118031 -1.950902
v 10.000000 26.118031 -0.000002
v 9.807850 26.118031 1.950898
v 9.238800 26.118031 3.826828
v 8.314700 26.118031 5.555698
v 7.071070 26.118031 7.071068
v 5.555700 26.118031 8.314698
v 3.826830 26.118031 9.238798
v 1.950900 26.118031 9.807848
v 0.000000 26.118031 9.999998
v -1.950900 26.118031 9.807848
v -3.826830 26.118031 9.238798
v -5.555700 26.118031 8.314698
v -7.071070 26.118031 7.071068
v -8.314700 26.118031 5.555698
v -9.238791 26.118031 3.826828
v -9.807850 26.118031 1.950898
v -10.000000 26.118031 -0.000002
v -9.807850 26.118031 -1.950902
v -9.238791 26.118031 -3.826832
v -8.314700 26.118031 -5.555702
v -7.071070 26.118031 -7.071072
v -5.555700 26.118031 -8.314702
v -3.826830 26.118031 -9.238802
v -1.950900 26.118031 -9.807852
v 2.286240 28.859539 3.144028
vn -0.0000 0.6857 0.7279
vn -0.1420 0.6857 0.7139
vn -0.1420 -0.6857 0.7139
vn -0.0000 -0.6857 0.7279
vn -0.2785 0.6857 0.6725
vn -0.2785 -0.6857 0.6725
vn -0.4044 0.6857 0.6052
vn -0.4044 -0.6857 0.6052
vn -0.5147 0.6857 0.5147
vn -0.5147 -0.6857 0.5147
vn -0.6052 0.6857 0.4044
vn -0.6052 -0.6857 0.4044
vn -0.6725 0.6857 0.2785
vn -0.6725 -0.6857 0.2785
vn -0.7139 0.6857 0.1420
vn -0.7139 -0.6857 0.1420
vn -0.7279 0.6857 -0.0000
vn -0.7279 -0.6857 -0.0000
vn -0.7139 0.6857 -0.1420
vn -0.7139 -0.6857 -0.1420
vn -0.6725 0.6857 -0.2785
vn -0.6725 -0.6857 -0.2785
vn -0.6052 0.6857 -0.4044
vn -0.6052 -0.6857 -0.4044
vn -0.5147 0.6857 -0.5147
vn -0.5147 -0.6857 -0.5147
vn -0.4044 0.6857 -0.6052
vn -0.4044 -0.6857 -0.6052
vn -0.2785 0.6857 -0.6725
vn -0.2785 -0.6857 -0.6725
vn -0.1420 0.6857 -0.7139
vn -0.1420 -0.6857 -0.7139
vn -0.0000 0.6857 -0.7279
vn -0.0000 -0.6857 -0.7279
vn 0.1420 0.6857 -0.7139
vn 0.1420 -0.6857 -0.7139
vn 0.2785 0.6857 -0.6725
vn 0.2785 -0.6857 -0.6725
vn 0.4044 0.6857 -0.6052
vn 0.4044 -0.6857 -0.6052
vn 0.5147 0.6857 -0.5147
vn 0.5147 -0.6857 -0.5147
vn 0.6052 0.6857 -0.4044
vn 0.6052 -0.6857 -0.4044
vn 0.6725 0.6857 -0.2785
vn 0.6725 -0.6857 -0.2785
vn 0.7139 0.6857 -0.1420
vn 0.7139 -0.6857 -0.1420
vn 0.7279 0.6857 -0.0000
vn 0.7279 -0.6857 -0.0000
vn 0.7139 0.6857 0.1420
vn 0.7139 -0.6857 0.1420
vn 0.6725 0.6857 0.2785
vn 0.6725 -0.6857 0.2785
vn 0.6052 0.6857 0.4044
vn 0.6052 -0.6857 0.4044
vn 0.5147 0.6857 0.5147
vn 0.5147 -0.6857 0.5147
vn 0.4044 0.6857 0.6052
vn 0.4044 -0.6857 0.6052
vn 0.2785 0.6857 0.6725
vn 0.2785 -0.6857 0.6725
vn 0.1420 -0.6857 0.7139
vn 0.1420 0.6857 0.7139
vn -0.0000 -0.0000 -1.0000
vn 0.1951 -0.0000 -0.9808
vn 0.3827 -0.0000 -0.9239
vn 0.5556 -0.0000 -0.8315
vn 0.7071 -0.0000 -0.7071
vn 0.8315 -0.0000 -0.5556
vn 0.9239 -0.0000 -0.3827
vn 0.9808 -0.0000 -0.1951
vn 1.0000 -0.0000 -0.0000
vn 0.9808 -0.0000 0.1951
vn 0.9239 -0.0000 0.3827
vn 0.8315 -0.0000 0.5556
vn 0.7071 -0.0000 0.7071
vn 0.5556 -0.0000 0.8315
vn 0.3827 -0.0000 0.9239
vn 0.1951 -0.0000 0.9808
vn -0.0000 -0.0000 1.0000
vn -0.1951 -0.0000 0.9808
vn -0.3827 -0.0000 0.9239
vn -0.5556 -0.0000 0.8315
vn -0.7071 -0.0000 0.7071
vn -0.8315 -0.0000 0.5556
vn -0.9239 -0.0000 0.3827
vn -0.9808 -0.0000 0.1951
vn -1.0000 -0.0000 -0.0000
vn -0.9808 -0.0000 -0.1951
vn -0.9239 -0.0000 -0.3827
vn -0.8315 -0.0000 -0.5556
vn -0.7071 -0.0000 -0.7071
vn -0.5556 -0.0000 -0.8315
vn -0.3827 -0.0000 -0.9239
vn -0.1951 -0.0000 -0.9808
vt 1.000000 0.500000
vt 0.968750 0.500000
vt 0.968750 1.000000
vt 1.000000 1.000000
vt 0.937500 0.500000
vt 0.937500 1.000000
vt 0.906250 0.500000
vt 0.906250 1.000000
vt 0.875000 0.500000
vt 0.875000 1.000000
vt 0.843750 0.500000
vt 0.843750 1.000000
vt 0.812500 0.500000
vt 0.812500 1.000000
vt 0.781250 0.500000
vt 0.781250 1.000000
vt 0.750000 0.500000
vt 0.750000 1.000000
vt 0.718750 0.500000
vt 0.718750 1.000000
vt 0.687500 0.500000
vt 0.687500 1.000000
vt 0.656250 0.500000
vt 0.656250 1.000000
vt 0.625000 0.500000
vt 0.625000 1.000000
vt 0.593750 0.500000
vt 0.593750 1.000000
vt 0.562500 0.500000
vt 0.562500 1.000000
vt 0.531250 0.500000
vt 0.531250 1.000000
vt 0.500000 0.500000
vt 0.500000 1.000000
vt 0.468750 0.500000
vt 0.468750 1.000000
vt 0.437500 0.500000
vt 0.437500 1.000000
vt 0.406250 0.500000
vt 0.406250 1.000000
vt 0.375000 0.500000
vt 0.375000 1.000000
vt 0.343750 0.500000
vt 0.343750 1.000000
vt 0.312500 0.500000
vt 0.312500 1.000000
vt 0.281250 0.500000
vt 0.281250 1.000000
vt 0.250000 0.500000
vt 0.250000 1.000000
vt 0.218750 0.500000
vt 0.218750 1.000000
vt 0.187500 0.500000
vt 0.187500 1.000000
vt 0.156250 0.500000
vt 0.156250 1.000000
vt 0.125000 0.500000
vt 0.125000 1.000000
vt 0.093750 0.500000
vt 0.093750 1.000000
vt 0.062500 0.500000
vt 0.062500 1.000000
vt 0.296822 0.485388
vt 0.341844 0.471731
vt 0.383337 0.449553
vt 0.419706 0.419706
vt 0.449553 0.383337
vt 0.471731 0.341844
vt 0.485388 0.296822
vt 0.490000 0.250000
vt 0.485388 0.203178
vt 0.471731 0.158156
vt 0.449553 0.116663
vt 0.419706 0.080294
vt 0.383337 0.050447
vt 0.341844 0.028269
vt 0.296822 0.014612
vt 0.250000 0.010000
vt 0.203178 0.014612
vt 0.158156 0.028269
vt 0.116663 0.050447
vt 0.080294 0.080294
vt 0.050447 0.116663
vt 0.028269 0.158156
vt 0.014612 0.203178
vt 0.010000 0.250000
vt 0.014612 0.296822
vt 0.028269 0.341844
vt 0.050447 0.383337
vt 0.080294 0.419706
vt 0.116663 0.449553
vt 0.158156 0.471731
vt 0.203178 0.485388
vt 0.250000 0.490000
vt 0.031250 0.500000
vt 0.031250 1.000000
vt 0.000000 0.500000
vt 0.000000 1.000000
vt 0.750000 0.490000
vt 0.703178 0.485388
vt 0.658156 0.471731
vt 0.616663 0.449553
vt 0.580294 0.419706
vt 0.550447 0.383337
vt 0.528269 0.341844
vt 0.514612 0.296822
vt 0.510000 0.250000
vt 0.514612 0.203178
vt 0.528269 0.158156
vt 0.550447 0.116663
vt 0.580294 0.080294
vt 0.616663 0.050447
vt 0.658156 0.028269
vt 0.703178 0.014612
vt 0.750000 0.010000
vt 0.796822 0.014612
vt 0.841844 0.028269
vt 0.883337 0.050447
vt 0.919706 0.080294
vt 0.949553 0.116663
vt 0.971731 0.158156
vt 0.985388 0.203178
vt 0.990000 0.250000
vt 0.985388 0.296822
vt 0.971731 0.341844
vt 0.949553 0.383337
vt 0.919706 0.419706
vt 0.883337 0.449553
vt 0.841844 0.471731
vt 0.796822 0.485388
s 1
f 1/1/1 3/2/2 4/3/3 2/4/4
f 3/2/2 5/5/5 6/6/6 4/3/3
f 5/5/5 7/7/7 8/8/8 6/6/6
f 7/7/7 9/9/9 10/10/10 8/8/8
f 9/9/9 11/11/11 12/12/12 10/10/10
f 11/11/11 13/13/13 14/14/14 12/12/12
f 13/13/13 15/15/15 16/16/16 14/14/14
f 15/15/15 17/17/17 18/18/18 16/16/16
f 17/17/17 19/19/19 20/20/20 18/18/18
f 19/19/19 21/21/21 22/22/22 20/20/20
f 21/21/21 23/23/23 24/24/24 22/22/22
f 23/23/23 25/25/25 26/26/26 24/24/24
f 25/25/25 27/27/27 28/28/28 26/26/26
f 27/27/27 29/29/29 30/30/30 28/28/28
f 29/29/29 31/31/31 32/32/32 30/30/30
f 31/31/31 33/33/33 34/34/34 32/32/32
f 33/33/33 35/35/35 36/36/36 34/34/34
f 35/35/35 37/37/37 38/38/38 36/36/36
f 37/37/37 39/39/39 40/40/40 38/38/38
f 39/39/39 41/41/41 42/42/42 40/40/40
f 41/41/41 43/43/43 44/44/44 42/42/42
f 43/43/43 45/45/45 46/46/46 44/44/44
f 45/45/45 47/47/47 48/48/48 46/46/46
f 47/47/47 49/49/49 50/50/50 48/48/48
f 49/49/49 51/51/51 52/52/52 50/50/50
f 51/51/51 53/53/53 54/54/54 52/52/52
f 53/53/53 55/55/55 56/56/56 54/54/54
f 55/55/55 57/57/57 58/58/58 56/56/56
f 57/57/57 59/59/59 60/60/60 58/58/58
f 59/59/59 61/61/61 62/62/62 60/60/60
f 4/63/3 6/64/6 8/65/8 10/66/10 12/67/12 14/68/14 16/69/16 18/70/18 20/71/20 22/72/22 24/73/24 26/74/26 28/75/28 30/76/30 32/77/32 34/78/34 36/79/36 38/80/38 40/81/40 42/82/42 44/83/44 46/84/46 48/85/48 50/86/50 52/87/52 54/88/54 56/89/56 58/90/58 60/91/60 62/92/62 64/93/63 2/94/4
f 61/61/61 63/95/64 64/96/63 62/62/62
f 63/95/64 1/97/1 2/98/4 64/96/63
f 1/99/1 63/100/64 61/101/61 59/102/59 57/103/57 55/104/55 53/105/53 51/106/51 49/107/49 47/108/47 45/109/45 43/110/43 41/111/41 39/112/39 37/113/37 35/114/35 33/115/33 31/116/31 29/117/29 27/118/27 25/119/25 23/120/23 21/121/21 19/122/19 17/123/17 15/124/15 13/125/13 11/126/11 9/127/9 7/128/7 5/129/5 3/130/2
f 65/1/34 66/4/65 68/3/66 67/2/36
f 67/2/36 68/3/66 70/6/67 69/5/38
f 69/5/38 70/6/67 72/8/68 71/7/40
f 71/7/40 72/8/68 74/10/69 73/9/42
f 73/9/42 74/10/69 76/12/70 75/11/44
f 75/11/44 76/12/70 78/14/71 77/13/46
f 77/13/46 78/14/71 80/16/72 79/15/48
f 79/15/48 80/16/72 82/18/73 81/17/50
f 81/17/50 82/18/73 84/20/74 83/19/52
f 83/19/52 84/20/74 86/22/75 85/21/54
f 85/21/54 86/22/75 88/24/76 87/23/56
f 87/23/56 88/24/76 90/26/77 89/25/58
f 89/25/58 90/26/77 92/28/78 91/27/60
f 91/27/60 92/28/78 94/30/79 93/29/62
f 93/29/62 94/30/79 96/32/80 95/31/63
f 95/31/63 96/32/80 98/34/81 97/33/4
f 97/33/4 98/34/81 100/36/82 99/35/3
f 99/35/3 100/36/82 102/38/83 101/37/6
f 101/37/6 102/38/83 104/40/84 103/39/8
f 103/39/8 104/40/84 106/42/85 105/41/10
f 105/41/10 106/42/85 108/44/86 107/43/12
f 107/43/12 108/44/86 110/46/87 109/45/14
f 109/45/14 110/46/87 112/48/88 111/47/16
f 111/47/16 112/48/88 114/50/89 113/49/18
f 113/49/18 114/50/89 116/52/90 115/51/20
f 115/51/20 116/52/90 118/54/91 117/53/22
f 117/53/22 118/54/91 120/56/92 119/55/24
f 119/55/24 120/56/92 122/58/93 121/57/26
f 121/57/26 122/58/93 124/60/94 123/59/28
f 123/59/28 124/60/94 126/62/95 125/61/30
f 128/96/96 126/62/95 160/62/29 161/96/31
f 125/61/30 126/62/95 128/96/96 127/95/32
f 127/95/32 128/96/96 66/98/65 65/97/34
f 65/99/34 67/130/36 69/129/38 71/128/40 73/127/42 75/126/44 77/125/46 79/124/48 81/123/50 83/122/52 85/121/54 87/120/56 89/119/58 91/118/60 93/117/62 95/116/63 97/115/4 99/114/3 101/113/6 103/112/8 105/111/10 107/110/12 109/109/14 111/108/16 113/107/18 115/106/20 117/105/22 119/104/24 121/103/26 123/102/28 125/101/30 127/100/32
f 131/63/35 130/94/33 161/93/31 160/92/29 159/91/27 158/90/25 157/89/23 156/88/21 155/87/19 154/86/17 153/85/15 152/84/13 151/83/11 150/82/9 149/81/7 148/80/5 147/79/2 146/78/1 145/77/64 144/76/61 143/75/59 142/74/57 141/73/55 140/72/53 139/71/51 138/70/49 137/69/47 136/68/45 135/67/43 134/66/41 133/65/39 132/64/37
f 84/20/74 82/18/73 138/18/49 139/20/51
f 102/38/83 100/36/82 147/36/2 148/38/5
f 120/56/92 118/54/91 156/54/21 157/56/23
f 76/12/70 74/10/69 134/10/41 135/12/43
f 94/30/79 92/28/78 143/28/59 144/30/61
f 112/48/88 110/46/87 152/46/13 153/48/15
f 68/3/66 66/4/65 130/4/33 131/3/35
f 66/98/65 128/96/96 161/96/31 130/98/33
f 86/22/75 84/20/74 139/20/51 140/22/53
f 104/40/84 102/38/83 148/38/5 149/40/7
f 122/58/93 120/56/92 157/56/23 158/58/25
f 78/14/71 76/12/70 135/12/43 136/14/45
f 96/32/80 94/30/79 144/30/61 145/32/64
f 114/50/89 112/48/88 153/48/15 154/50/17
f 70/6/67 68/3/66 131/3/35 132/6/37
f 88/24/76 86/22/75 140/22/53 141/24/55
f 106/42/85 104/40/84 149/40/7 150/42/9
f 124/60/94 122/58/93 158/58/25 159/60/27
f 80/16/72 78/14/71 136/14/45 137/16/47
f 98/34/81 96/32/80 145/32/64 146/34/1
f 116/52/90 114/50/89 154/50/17 155/52/19
f 72/8/68 70/6/67 132/6/37 133/8/39
f 90/26/77 88/24/76 141/24/55 142/26/57
f 108/44/86 106/42/85 150/42/9 151/44/11
f 126/62/95 124/60/94 159/60/27 160/62/29
f 82/18/73 80/16/72 137/16/47 138/18/49
f 100/36/82 98/34/81 146/34/1 147/36/2
f 118/54/91 116/52/90 155/52/19 156/54/21
f 74/10/69 72/8/68 133/8/39 134/10/41
f 92/28/78 90/26/77 142/26/57 143/28/59
f 110/46/87 108/44/86 151/44/11 152/46/13
l 129 162
